<?xml version="1.0" encoding="UTF-8" standalone="no"?>
<!-- Created with Inkscape (http://www.inkscape.org/) -->

<svg
   xmlns:dc="http://purl.org/dc/elements/1.1/"
   xmlns:cc="http://creativecommons.org/ns#"
   xmlns:rdf="http://www.w3.org/1999/02/22-rdf-syntax-ns#"
   xmlns:svg="http://www.w3.org/2000/svg"
   xmlns="http://www.w3.org/2000/svg"
   xmlns:sodipodi="http://sodipodi.sourceforge.net/DTD/sodipodi-0.dtd"
   xmlns:inkscape="http://www.inkscape.org/namespaces/inkscape"
   width="500"
   height="500"
   viewBox="0 0 500 500"
   id="svg3336"
   version="1.1"
   inkscape:version="0.91 r13725"
   sodipodi:docname="logo.svg">
  <defs
     id="defs3338" />
  <sodipodi:namedview
     id="base"
     pagecolor="#ffffff"
     bordercolor="#666666"
     borderopacity="1.0"
     inkscape:pageopacity="0.0"
     inkscape:pageshadow="2"
     inkscape:zoom="0.7"
     inkscape:cx="-37.511342"
     inkscape:cy="473.74993"
     inkscape:document-units="px"
     inkscape:current-layer="layer1"
     showgrid="false"
     inkscape:snap-global="false"
     inkscape:window-width="1680"
     inkscape:window-height="1026"
     inkscape:window-x="1152"
     inkscape:window-y="24"
     inkscape:window-maximized="1"
     units="px"
     width="500px" />
  <metadata
     id="metadata3341">
    <rdf:RDF>
      <cc:Work
         rdf:about="">
        <dc:format>image/svg+xml</dc:format>
        <dc:type
           rdf:resource="http://purl.org/dc/dcmitype/StillImage" />
        <dc:title></dc:title>
      </cc:Work>
    </rdf:RDF>
  </metadata>
  <g
     inkscape:label="レイヤー 1"
     inkscape:groupmode="layer"
     id="layer1"
     transform="translate(0,-552.3622)">
    <path
       style="fill:#004871;fill-opacity:1;fill-rule:nonzero;stroke:none;stroke-width:0.2;stroke-linecap:butt;stroke-linejoin:miter;stroke-miterlimit:4;stroke-dasharray:none;stroke-opacity:1"
       id="path3346"
       d="m 179.96424,710.48928 c -14.18888,-0.16614 -25.89901,3.71862 -39.86417,6.09784 -3.67588,0.82667 -7.63468,1.08024 -11.07648,2.76886 -0.47238,0.23176 -1.75467,1.15864 -1.29507,0.90247 l 12.21299,-6.98775 c -0.0156,-0.007 -0.0311,-0.014 -0.0467,-0.021 49.72344,17.87057 88.85624,108.41618 91.05636,148.89822 -2.29469,36.99215 -44.44201,48.81606 -77.06718,54.21183 -6.48667,0.64506 -13.01747,0.86463 -19.53181,0.67968 -5.97246,-0.47091 -12.03935,-1.32212 -17.61502,-3.59343 -4.71125,-2.25374 -6.533,-5.27515 -8.34996,-9.99571 -1.28568,-4.81223 -2.04964,-9.88333 -1.38389,-14.86133 0.15501,-1.15902 0.43327,-2.2982 0.6499,-3.44731 1.50443,-5.30836 3.70727,-10.43173 6.73906,-15.05439 2.28573,-3.48511 3.67368,-4.97811 6.37475,-8.26161 19.84454,-23.3241 47.0991,-41.51086 72.56586,-50.74237 16.68688,-5.25112 36.19556,-7.70444 52.85677,-6.15338 28.84061,4.41174 37.73113,37.98111 54.93946,59.05022 17.44334,12.65679 -9.27164,28.49678 -2.82955,18.15717 2.4207,-4.92011 4.44474,-10.02486 6.70713,-15.02019 2.23805,-5.444 5.23968,-26.50203 9.24303,-30.8081 1.932,-1.91084 4.09863,-3.55515 6.4681,-4.88605 9.35459,-4.85956 16.5862,-9.0454 25.62974,-4.07035 16.22566,9.85229 3.63567,14.71612 15.86105,1.33878 3.85856,-4.37038 7.87333,-8.60889 11.38839,-13.26579 1.94183,-2.57228 3.79914,-5.20523 5.615,-7.86744 0.86311,-1.25139 0.43822,-0.65051 1.27207,-1.80449 l 13.74475,-5.97636 0,0 c -0.8171,1.20317 -0.37687,0.6086 -1.32609,1.77969 -1.75593,2.7726 -3.77022,5.37883 -5.72191,8.01469 -3.53871,4.74955 -7.59095,9.05056 -11.50767,13.48929 -4.23278,4.53178 -8.38421,9.1612 -12.94439,13.36777 -4.76786,2.7828 -9.46434,5.69165 -14.30357,8.3484 -2.22515,1.22162 -4.48248,-0.83107 -5.88704,-2.27637 -2.60111,-2.64661 -5.30899,-5.24302 -8.61081,-7.00486 -8.4199,-2.08623 -11.66504,1.03577 -15.59802,9.43467 -2.26951,4.94061 -4.3182,26.07022 -6.39552,31.09325 -3.12911,6.81697 -13.42961,14.47123 -16.33946,6.25939 -1.65895,-3.98855 -4.42652,-7.36707 -6.96866,-10.81986 -20.04507,-21.50638 -26.63485,-57.5937 -55.19449,-61.24308 -43.79117,-0.28072 -73.30384,21.3614 -102.01084,53.86866 -32.182813,54.77373 68.86335,19.53251 73.49142,-21.57732 -0.7718,-20.6664 -5.61262,-39.13282 -12.6291,-55.65983 -10.40518,-22.87401 -33.9005,-53.07848 -55.74775,-61.93332 -2.32352,-0.96855 -1.80884,-0.78773 -4.07112,-1.60654 -1.5237,-0.55149 -3.37667,-0.94955 -4.75205,-1.84749 -0.356,-0.23242 -0.62804,-0.57322 -0.94206,-0.85983 -0.19105,-0.42762 -0.94353,-0.99619 -0.57315,-1.28286 19.78355,-15.43693 42.20822,-17.63148 62.06651,-17.47059 10.38088,0.16503 26.53076,2.55058 36.62406,5.30939 5.49687,1.93584 10.90714,4.21085 15.64766,7.66365 l -6.58512,12.03912 c -16.64945,-9.61237 -36.89862,-15.56188 -53.98541,-16.37404 z"
       inkscape:connector-curvature="0"
       sodipodi:nodetypes="ccsccccccccscscccccccccccccccccccscccccccccccssccccccc" />
  </g>
</svg>
